<svg width="40" height="40" viewBox="0 0 40 40" fill="none" xmlns="http://www.w3.org/2000/svg">
<path d="M11.1111 1.18343H40V5.91716H11.1111V1.18343ZM3.33333 7.10059C2.44928 7.10059 1.60143 6.72654 0.976311 6.06073C0.35119 5.39493 0 4.49189 0 3.5503C0 2.6087 0.35119 1.70567 0.976311 1.03986C1.60143 0.374048 2.44928 0 3.33333 0C4.21739 0 5.06524 0.374048 5.69036 1.03986C6.31548 1.70567 6.66667 2.6087 6.66667 3.5503C6.66667 4.49189 6.31548 5.39493 5.69036 6.06073C5.06524 6.72654 4.21739 7.10059 3.33333 7.10059ZM3.33333 23.6686C2.44928 23.6686 1.60143 23.2946 0.976311 22.6288C0.35119 21.963 0 21.0599 0 20.1183C0 19.1767 0.35119 18.2737 0.976311 17.6079C1.60143 16.9421 2.44928 16.568 3.33333 16.568C4.21739 16.568 5.06524 16.9421 5.69036 17.6079C6.31548 18.2737 6.66667 19.1767 6.66667 20.1183C6.66667 21.0599 6.31548 21.963 5.69036 22.6288C5.06524 23.2946 4.21739 23.6686 3.33333 23.6686ZM3.33333 40C2.44928 40 1.60143 39.626 0.976311 38.9601C0.35119 38.2943 0 37.3913 0 36.4497C0 35.5081 0.35119 34.6051 0.976311 33.9393C1.60143 33.2735 2.44928 32.8994 3.33333 32.8994C4.21739 32.8994 5.06524 33.2735 5.69036 33.9393C6.31548 34.6051 6.66667 35.5081 6.66667 36.4497C6.66667 37.3913 6.31548 38.2943 5.69036 38.9601C5.06524 39.626 4.21739 40 3.33333 40ZM11.1111 17.7515H40V22.4852H11.1111V17.7515ZM11.1111 34.3195H40V39.0533H11.1111V34.3195Z" fill="black"/>
</svg>
